<svg xmlns="http://www.w3.org/2000/svg" width="44" height="44" fill="none"><g clip-path="url(#a)"><g clip-path="url(#b)"><path fill="#0091E2" d="M51.011 12.638c-.138-.14-1.391-1.308-4.08-1.308-.697 0-1.417.085-2.113.23-.508-4.352-3.454-6.458-3.572-6.567l-.72-.514-.464.823a13.7 13.7 0 0 0-1.274 3.638c-.488 2.475-.187 4.806.834 6.797-1.229.853-3.222 1.053-3.642 1.083H3.05c-.859 0-1.554.853-1.554 1.906a34.8 34.8 0 0 0 1.436 10.38c1.135 3.638 2.828 6.343 5.009 7.99 2.458 1.846 6.47 2.899 10.99 2.899 2.039 0 4.081-.23 6.1-.684 2.807-.623 5.497-1.821 7.975-3.553 2.043-1.452 3.874-3.298 5.428-5.46 2.62-3.612 4.175-7.65 5.31-11.233h.464c2.852 0 4.614-1.392 5.587-2.59.65-.738 1.135-1.651 1.485-2.674l.207-.739zM30.63 15.652h4.406c.208 0 .395-.2.395-.484v-4.836c0-.254-.163-.484-.395-.484H30.63c-.208 0-.395.2-.395.484v4.836c.024.284.187.484.395.484M24.485 1.804h4.407c.208 0 .395-.2.395-.484v-4.836c0-.254-.187-.484-.395-.484h-4.407c-.207 0-.394.2-.394.484V1.32c0 .254.183.484.394.484m0 6.936h4.407c.208 0 .395-.23.395-.484V3.421c0-.255-.187-.484-.395-.484h-4.407c-.207 0-.394.2-.394.484v4.835c0 .26.183.484.394.484m-6.099 0h4.407c.207 0 .394-.23.394-.484V3.421c0-.255-.162-.484-.394-.484h-4.407c-.207 0-.395.2-.395.484v4.835c0 .26.163.484.395.484m-6.193 0H16.6c.207 0 .394-.23.394-.484V3.421c0-.255-.162-.484-.394-.484h-4.407c-.208 0-.395.2-.395.484v4.835c.025.26.187.484.395.484m12.292 6.912h4.407c.208 0 .395-.2.395-.484v-4.836c0-.254-.163-.484-.395-.484h-4.407c-.207 0-.394.2-.394.484v4.836c0 .284.183.484.394.484m-6.099 0h4.407c.207 0 .394-.2.394-.484v-4.836c0-.254-.162-.484-.394-.484h-4.407c-.207 0-.395.2-.395.484v4.836c0 .284.163.484.395.484m-6.193 0H16.6c.207 0 .394-.2.394-.484v-4.836c0-.254-.162-.484-.394-.484h-4.407c-.208 0-.395.2-.395.484v4.836c.025.284.187.484.395.484m-6.075 0h4.407c.207 0 .394-.2.394-.484v-4.836c0-.254-.162-.484-.394-.484H6.118c-.208 0-.395.2-.395.484v4.836c.025.284.187.484.395.484"/></g></g><defs><clipPath id="a"><path fill="#fff" d="M0 0h44v44H0z"/></clipPath><clipPath id="b"><path fill="#fff" d="M1.5-4h50v44h-50z"/></clipPath></defs></svg>