<svg xmlns="http://www.w3.org/2000/svg" width="65" height="44" fill="none"><path fill="#252F3E" fill-rule="evenodd" d="M18.318 15.98c0 .905.086 1.64.237 2.178.173.538.39 1.126.692 1.762.108.195.151.391.151.563 0 .244-.13.489-.41.734l-1.362 1.027c-.195.147-.39.22-.562.22-.217 0-.433-.121-.649-.342a7.6 7.6 0 0 1-.778-1.15 20 20 0 0 1-.67-1.444q-2.53 3.377-6.356 3.377c-1.816 0-3.264-.587-4.324-1.762-1.059-1.175-1.6-2.74-1.6-4.698 0-2.08.65-3.769 1.968-5.042s3.07-1.908 5.296-1.908c.735 0 1.492.073 2.292.196.8.122 1.621.318 2.486.538V8.442c0-1.86-.346-3.156-1.016-3.915-.692-.759-1.86-1.126-3.524-1.126-.757 0-1.535.098-2.335.318s-1.578.49-2.335.832c-.345.172-.605.27-.756.318-.151.05-.26.074-.346.074-.303 0-.454-.245-.454-.759V2.985c0-.392.043-.685.151-.856.108-.172.303-.343.606-.514Q5.854.955 7.444.513C8.503.195 9.627.05 10.816.05c2.573 0 4.454.66 5.664 1.982 1.19 1.321 1.794 3.328 1.794 6.02v7.929zM9.54 19.7c.714 0 1.449-.147 2.227-.44.778-.295 1.47-.833 2.054-1.567.346-.465.605-.979.735-1.566s.216-1.297.216-2.13V12.97a16 16 0 0 0-1.989-.416 14.5 14.5 0 0 0-2.032-.147c-1.448 0-2.508.318-3.221.98-.714.66-1.06 1.59-1.06 2.813 0 1.15.26 2.007.8 2.594.52.612 1.276.906 2.27.906m17.36 2.642c-.39 0-.649-.073-.822-.244-.173-.147-.324-.49-.454-.955l-5.08-18.916c-.13-.49-.195-.808-.195-.98 0-.39.173-.611.52-.611h2.118c.41 0 .692.073.843.245.173.146.303.49.432.954l3.632 16.2 3.373-16.2c.108-.49.238-.808.41-.954.174-.147.476-.245.865-.245h1.73c.41 0 .692.073.865.245.173.146.324.49.41.954l3.416 16.396 3.74-16.396c.13-.49.281-.808.432-.954.173-.147.454-.245.843-.245h2.01c.347 0 .541.196.541.612 0 .122-.021.245-.043.391a4 4 0 0 1-.151.612l-5.21 18.917q-.195.734-.454.954c-.173.147-.454.245-.822.245H37.99c-.41 0-.692-.073-.865-.245s-.324-.49-.41-.979L33.364 5.36l-3.33 15.76c-.107.49-.237.807-.41.979-.173.17-.476.244-.865.244zm27.78.661c-1.125 0-2.25-.147-3.33-.44s-1.924-.612-2.486-.98c-.346-.22-.584-.464-.67-.684a1.9 1.9 0 0 1-.13-.686v-1.248c0-.514.173-.758.497-.758q.195 0 .39.073c.129.05.324.147.54.245.735.367 1.535.66 2.378.856.865.196 1.708.294 2.573.294 1.361 0 2.42-.27 3.156-.808.735-.538 1.124-1.321 1.124-2.325 0-.685-.195-1.248-.584-1.713s-1.124-.88-2.183-1.272l-3.135-1.101c-1.578-.563-2.745-1.395-3.459-2.496a6.34 6.34 0 0 1-1.08-3.549q0-1.541.583-2.716a6.1 6.1 0 0 1 1.557-2.007A6.6 6.6 0 0 1 52.669.416C53.534.122 54.442 0 55.393 0c.476 0 .973.024 1.448.097.498.074.952.172 1.406.27.432.122.843.244 1.232.391q.584.22.908.44c.302.196.519.392.648.612q.195.294.195.808v1.15c0 .514-.173.783-.497.783-.173 0-.454-.098-.822-.293q-1.849-.955-4.15-.955c-1.233 0-2.206.22-2.876.685S51.87 5.163 51.87 6.166c0 .685.216 1.273.648 1.738s1.233.93 2.378 1.346l3.07 1.1c1.557.564 2.681 1.347 3.351 2.35s.995 2.154.995 3.426c0 1.052-.195 2.007-.562 2.839-.39.832-.908 1.566-1.578 2.153-.67.612-1.47 1.053-2.4 1.37a9.2 9.2 0 0 1-3.092.515" clip-rule="evenodd"/><path fill="#F90" fill-rule="evenodd" d="M58.765 34.897C51.653 40.843 41.32 44 32.435 44 19.981 44 8.761 38.788.287 30.125c-.67-.686-.065-1.616.735-1.077 9.166 6.02 20.473 9.666 32.168 9.666 7.89 0 16.56-1.86 24.537-5.677 1.189-.612 2.205.88 1.037 1.86" clip-rule="evenodd"/><path fill="#F90" fill-rule="evenodd" d="M61.727 31.079c-.908-1.322-6.01-.637-8.323-.318-.692.098-.8-.588-.173-1.101 4.064-3.23 10.744-2.3 11.523-1.224.778 1.101-.217 8.663-4.021 12.285-.584.563-1.146.269-.887-.465.865-2.423 2.79-7.88 1.881-9.177" clip-rule="evenodd"/></svg>