<svg xmlns="http://www.w3.org/2000/svg" width="43" height="40" fill="none"><path fill="url(#a)" d="M14.718.934h12.206L14.253 38.476a1.95 1.95 0 0 1-1.844 1.323h-9.5a1.95 1.95 0 0 1-1.942-1.943c0-.21.034-.42.102-.62L12.874 2.258A1.95 1.95 0 0 1 14.718.933"/><path fill="#0078D4" d="M32.455 26.115H13.098a.897.897 0 0 0-.61 1.551l12.437 11.608c.362.338.839.526 1.334.525h10.96z"/><path fill="url(#b)" d="M14.718.934a1.93 1.93 0 0 0-1.848 1.35L1.084 37.203q-.114.317-.114.655a1.95 1.95 0 0 0 1.94 1.94h9.75a2.09 2.09 0 0 0 1.598-1.359l2.35-6.927 8.396 7.831c.352.29.793.452 1.25.455h10.919l-4.79-13.684-13.96.003L26.969.934z"/><path fill="url(#c)" d="M30.308 2.256A1.95 1.95 0 0 0 28.466.934H14.863a1.95 1.95 0 0 1 1.842 1.322L28.51 37.235c.067.2.102.41.102.621a1.953 1.953 0 0 1-1.943 1.944h13.603a1.953 1.953 0 0 0 1.943-1.944q0-.318-.102-.621z"/><defs><linearGradient id="a" x1="19.167" x2="6.491" y1="3.814" y2="41.262" gradientUnits="userSpaceOnUse"><stop stop-color="#114A8B"/><stop offset="1" stop-color="#0669BC"/></linearGradient><linearGradient id="b" x1="23.126" x2="20.194" y1="21.266" y2="22.257" gradientUnits="userSpaceOnUse"><stop stop-opacity=".3"/><stop offset=".07" stop-opacity=".2"/><stop offset=".32" stop-opacity=".1"/><stop offset=".62" stop-opacity=".05"/><stop offset="1" stop-opacity="0"/></linearGradient><linearGradient id="c" x1="21.513" x2="35.428" y1="2.722" y2="39.792" gradientUnits="userSpaceOnUse"><stop stop-color="#3CCBF4"/><stop offset="1" stop-color="#2892DF"/></linearGradient></defs></svg>