<svg xmlns="http://www.w3.org/2000/svg" width="42" height="35" fill="none"><g fill-rule="evenodd" clip-path="url(#a)" clip-rule="evenodd"><path fill="#EA4335" d="m26.728 9.673 1.345.024L31.73 5.91l.177-1.604C28.904 1.529 25.02-.004 20.996 0 13.423 0 7.03 5.34 5.139 12.57c.399-.289 1.252-.072 1.252-.072l7.304-1.244s.375-.644.565-.612c1.727-1.966 4.175-3.086 6.74-3.085 2.166.005 4.16.798 5.728 2.11z"/><path fill="#4285F4" d="M36.862 12.578a17.15 17.15 0 0 0-4.958-8.28l-5.176 5.363c2.074 1.734 3.404 4.387 3.404 7.356v.947c2.518 0 4.564 2.124 4.564 4.728 0 2.608-2.05 4.727-4.564 4.727h-9.127l-.914.952v5.675l.914.941h9.127c6.55-.01 11.858-5.508 11.868-12.295-.004-4.184-2.034-7.886-5.138-10.113z"/><path fill="#34A853" d="M11.868 35h9.122v-7.574h-9.122a4.4 4.4 0 0 1-1.878-.423l-1.317.418-3.655 3.787-.32 1.279a11.55 11.55 0 0 0 7.17 2.508z"/><path fill="#FBBC05" d="M11.868 10.402C5.318 10.418.01 15.917 0 22.704c0 3.993 1.846 7.543 4.703 9.792l5.292-5.482c-1.636-.765-2.689-2.45-2.69-4.31 0-2.609 2.05-4.728 4.563-4.728 1.85 0 3.442 1.156 4.16 2.788l5.293-5.483c-2.17-2.96-5.598-4.872-9.452-4.872z"/></g><defs><clipPath id="a"><path fill="#fff" d="M0 0h42v35H0z"/></clipPath></defs></svg>