<svg xmlns="http://www.w3.org/2000/svg" width="45" height="44" fill="none"><path fill="#2684FF" d="M1.928 0C1.149-.01.51.682.5 1.548q0 .136.018.271L6.503 42.22c.154 1.02.944 1.771 1.875 1.78h28.71c.698.01 1.297-.55 1.41-1.317l5.984-40.856c.124-.855-.398-1.66-1.166-1.799a1.3 1.3 0 0 0-.244-.02zm25.2 29.2h-9.164l-2.481-14.416h13.865z"/><path fill="url(#a)" d="M42.542 14.764h-13.22l-2.219 14.404h-9.156l-10.81 14.27c.342.33.779.514 1.232.518h28.694c.697.01 1.296-.55 1.408-1.316z"/><defs><linearGradient id="a" x1="45.609" x2="28.096" y1="18.821" y2="41.181" gradientUnits="userSpaceOnUse"><stop offset=".18" stop-color="#0052CC"/><stop offset="1" stop-color="#2684FF"/></linearGradient></defs></svg>